<svg xmlns="http://www.w3.org/2000/svg" viewBox="0 0 374 128" width="100%" height="100%">
  <!-- Bottom dark part -->
  <path d="M0 0 C31.68 0 63.36 0 96 0 C96.165 1.155 96.165 1.155 97 7 C97.784 6.031 98.567 5.061 99.375 4.062 C100.913 2.16 101.793 1.104 104 0 C109.014 -0.378 112.005 -0.131 116 3 C119.193 6.02 119.94 7.525 120.5 11.938 C120.276 16.175 118.774 18.763 116 22 C112.51 24.742 108.246 24.411 104 24 C100.01 22.814 99.017 20.498 97 17 C96.921 17.453 96.921 17.453 96.52 19.746 C94.066 32.557 89.359 42.752 78.648 50.758 C72.793 54.457 66.598 56.945 60 59 C59.386 59.193 58.773 59.387 58.141 59.586 C45.514 62.028 31.426 59.928 20.688 52.812 C9.71 44.326 3.817 36.36 0 23 C0 15.41 0 7.82 0 0 Z" fill="#57392E" transform="translate(12,44)"/>
  <!-- Top light part -->
  <path d="M0 0 C31.68 0 63.36 0 96 0 C96 5.94 96 11.88 96 18 C64.32 18 32.64 18 0 18 C0 12.06 0 6.12 0 0 Z" fill="#F5CA98" transform="translate(12,26)"/>
  <!-- Handle -->
  <path d="M0 0 C4.092 1.808 6.698 4.163 9 8 C9.624 12.913 9.533 14.973 7.25 19.375 C4.592 22.476 3.193 23.792 -0.891 24.18 C-8.056 24.419 -8.056 24.419 -11 22 C-14.04 17.609 -15.931 14.47 -15 9 C-11.185 2.051 -8.105 -0.853 0 0 Z" fill="#87523B" transform="translate(123,44)"/>

  <!-- Text -->
  <path d="M0 0 C4.377 2.603 7.608 5.912 10.48 10.09 C10.868 11.745 11.211 13.412 11.48 15.09 C1.472 15.879 1.472 15.879 -2.582 12.652 C-3.221 11.807 -3.861 10.961 -4.52 10.09 C-7.34 8.68 -9.39 8.844 -12.52 9.09 C-16.322 10.818 -17.965 12.255 -19.52 16.09 C-20.109 20.367 -19.965 24.043 -18.27 28.027 C-15.563 31.217 -13.726 31.961 -9.582 32.402 C-6.086 32.046 -4.314 31.186 -1.52 29.09 C-0.86 28.1 -0.2 27.11 0.48 26.09 C3.082 25.797 3.082 25.797 6.105 25.902 C6.607 25.916 6.607 25.916 9.145 25.984 C9.915 26.019 10.686 26.054 11.48 26.09 C10.689 31.987 7.653 35.066 3.48 39.09 C-2.05 43.303 -8.869 42.813 -15.52 42.09 C-21.442 40.415 -25.036 37.165 -28.52 32.09 C-31.866 25.974 -32.398 20.73 -31.121 13.984 C-29.16 7.4 -24.332 3.521 -18.688 -0.078 C-13.1 -2.223 -5.589 -2.019 0 0 Z" fill="#FFFFFF" transform="translate(183.5,13.9)"/>
  <path d="M0 0 C1.156 0.016 1.156 0.016 6.934 0.098 C7.264 4.058 7.594 8.018 7.934 12.098 C8.924 11.438 9.914 10.778 10.934 10.098 C16.532 9.277 21.183 9.894 25.934 13.098 C30.997 18.709 31.281 22.39 31.215 29.82 C30.744 35.301 28.97 38.352 24.746 41.973 C19.36 44.127 14.816 44.857 9.371 42.66 C8.567 42.145 7.762 41.629 6.934 41.098 C6.604 41.758 6.274 42.418 5.934 43.098 C-0.219 43.195 -0.219 43.195 -2.066 43.098 C-3.989 41.175 -3.195 38.317 -3.205 35.759 C-3.203 34.87 -3.201 33.982 -3.199 33.066 C-3.2 32.16 -3.201 31.254 -3.202 30.32 C-3.203 28.4 -3.201 26.48 -3.197 24.56 C-3.191 21.61 -3.197 18.661 -3.203 15.711 C-3.202 13.85 -3.201 11.99 -3.199 10.129 C-3.201 9.24 -3.203 8.352 -3.205 7.436 C-3.177 0.15 -3.177 0.15 0 0 Z M8.559 20.785 C6.714 23.41 6.012 24.887 5.934 28.098 C7.555 31.584 8.698 32.941 11.934 35.098 C18.036 34.88 18.036 34.88 20.871 32.41 C22.279 29.345 22.411 27.442 21.934 24.098 C20.371 21.223 20.371 21.223 17.934 19.098 C13.926 18.454 11.901 18.41 8.559 20.785 Z" fill="#FFFFFF" transform="translate(279.1,12.9)"/>
  <path d="M0 0 C2.97 0 5.94 0 9 0 C9 14.19 9 28.38 9 43 C6.03 43 3.06 43 0 43 C0 28.81 0 14.62 0 0 Z" fill="#FFFFFF" transform="translate(351,13)"/>
  <path d="M0 0 C2.562 1.5 2.562 1.5 4 3 C4.33 2.34 4.66 1.68 5 1 C7.97 1 10.94 1 14 1 C14 11.56 14 22.12 14 33 C11.03 33 8.06 33 5 33 C4.67 32.34 4.34 31.68 4 31 C3.598 31.258 3.598 31.258 1.562 32.562 C-3.014 34.409 -6.298 34.478 -11 33 C-14.599 30.839 -17.183 28.279 -19.438 24.75 C-20.567 19.228 -20.696 14.051 -18.875 8.688 C-13.914 1.576 -8.523 -0.908 0 0 Z M-10 12 C-11.209 16.08 -11.488 18.065 -9.5 21.875 C-6.221 24.663 -4.292 25.151 0 25 C3.428 22.593 4.786 21.142 5.562 17 C4.849 13.195 3.924 11.549 1 9 C-3.558 8.349 -6.929 8.338 -10 12 Z" fill="#FFFFFF" transform="translate(332,23)"/>
  <path d="M0 0 C2.301 1.122 3.982 2.385 6 4 C6.433 3.526 6.866 3.051 7.312 2.562 C10.375 -0.273 13.877 -0.389 17.93 -0.359 C21.623 0.282 23.422 2.359 26 5 C27.357 7.714 27.112 9.848 27.098 12.883 C27.096 13.466 27.096 13.466 27.088 16.418 C27.084 17.03 27.084 17.03 27.062 20.125 C27.058 21.356 27.053 22.587 27.049 23.855 C27.037 26.904 27.021 29.952 27 33 C24.03 33 21.06 33 18 33 C17.975 32.374 17.95 31.749 17.924 31.104 C17.808 28.277 17.685 25.451 17.562 22.625 C17.523 21.64 17.484 20.655 17.443 19.641 C17.401 18.7 17.36 17.759 17.316 16.789 C17.28 15.92 17.243 15.05 17.205 14.155 C17 12 17 12 16 10 C14 9.957 12 9.959 10 10 C8.349 11.651 8.775 13.637 8.684 15.91 C8.663 16.405 8.663 16.405 8.557 18.908 C8.517 19.949 8.478 20.99 8.438 22.062 C8.416 22.585 8.416 22.585 8.307 25.229 C8.2 27.819 8.098 30.409 8 33 C6.521 33.027 5.042 33.046 3.562 33.062 C2.739 33.074 1.915 33.086 1.066 33.098 C-1 33 -1 33 -2 32 C-2.145 30.452 -2.227 28.898 -2.281 27.344 C-2.3 26.874 -2.3 26.874 -2.395 24.496 C-2.43 23.497 -2.43 23.497 -2.605 18.504 C-2.624 18.034 -2.624 18.034 -2.719 15.656 C-2.749 14.788 -2.779 13.92 -2.811 13.025 C-3 11 -3 11 -4 10 C-6.438 9.75 -6.438 9.75 -9 10 C-11.087 13.131 -11.277 14.069 -11.414 17.668 C-11.453 18.561 -11.491 19.453 -11.531 20.373 C-11.547 20.837 -11.547 20.837 -11.625 23.188 C-11.664 24.128 -11.702 25.068 -11.742 26.037 C-11.836 28.358 -11.919 30.679 -12 33 C-14.97 33 -17.94 33 -21 33 C-21.165 29.865 -21.165 29.865 -22 14 C-23.444 16.186 -24.887 18.373 -26.375 20.625 C-27.299 21.995 -28.225 23.363 -29.152 24.73 C-31.012 27.485 -32.785 30.269 -34.504 33.113 C-40.398 42.546 -40.398 42.546 -45.074 43.871 C-47.862 43.875 -50.294 43.648 -53 43 C-49.125 36.125 -49.125 36.125 -48 35 C-47.84 32.481 -47.741 29.987 -47.684 27.465 C-47.663 26.712 -47.642 25.958 -47.621 25.182 C-47.555 22.767 -47.496 20.353 -47.438 17.938 C-47.394 16.304 -47.351 14.671 -47.307 13.037 C-47.199 9.025 -47.098 5.012 -47 1 C-44.03 1 -41.06 1 -38 1 C-37.67 6.94 -37.34 12.88 -37 19 C-35.762 17.144 -34.525 15.288 -33.25 13.375 C-32.542 12.312 -32.542 12.312 -29 7 C-28.381 5.886 -27.762 4.773 -27.125 3.625 C-25 1 -25 1 -21.984 0.414 C-20.917 0.484 -19.85 0.553 -18.75 0.625 C-17.672 0.679 -16.595 0.733 -15.484 0.789 C-14.665 0.859 -13.845 0.928 -13 1 C-12.835 1.33 -12.835 1.33 -12 3 C-11.505 2.505 -11.01 2.01 -10.5 1.5 C-7.044 -0.574 -3.883 -0.707 0 0 Z" fill="#FFFFFF" transform="translate(245,23)"/>
  <path d="M0 0 C4.008 2.981 6.08 5.807 8.062 10.375 C8.062 11.365 8.062 12.355 8.062 13.375 C4.334 13.728 0.777 13.914 -2.938 13.375 C-4.652 11.416 -6.322 9.416 -7.938 7.375 C-11.092 6.519 -13.768 6.629 -16.938 7.375 C-20.077 9.403 -21.5 10.889 -22.562 14.5 C-23.387 19.582 -22.997 23.05 -19.938 27.375 C-16.59 30.005 -13.055 29.808 -8.938 29.375 C-6.184 27.579 -4.411 26.322 -2.938 23.375 C1.023 23.375 4.983 23.375 9.062 23.375 C9.093 22.777 9.093 22.777 9.25 19.75 C9.846 15.261 11.448 12.161 15.062 9.375 C20.712 6.222 25.627 5.995 31.832 7.582 C36.172 9.125 38.338 11.301 40.875 15.062 C42.947 20.843 42.953 26.01 40.5 31.688 C38.214 35.65 35.495 38.111 31.062 39.375 C25.539 40.087 20.799 40.101 15.625 37.938 C12.199 34.512 10.157 30.712 8.062 26.375 C7.526 27.262 6.99 28.149 6.438 29.062 C3.07 34.095 -1.14 37.459 -6.938 39.375 C-13.295 40.129 -19.536 40.122 -25.184 36.855 C-29.377 33.316 -33.654 27.392 -34.176 21.836 C-34.338 15.089 -34.066 9.889 -29.938 4.375 C-21.596 -4.156 -10.452 -6.412 0 0 Z M18.062 20.375 C17.438 23.375 17.438 23.375 18.062 26.375 C20.188 29.312 20.188 29.312 23.062 31.375 C27.016 31.296 28.759 30.577 32.062 28.375 C32.864 25.321 33.354 23.425 33.062 20.375 C30.812 17.199 29.362 15.7 25.562 14.75 C21.854 15.677 20.353 17.365 18.062 20.375 Z" fill="#FFFFFF" transform="translate(186.9,71.6)"/>
  <path d="M0 0 C0 1.98 0 3.96 0 6 C-0.99 6.33 -1.98 6.66 -3 7 C-3.33 7.99 -3.66 8.98 -4 10 C-2.35 10 -0.7 10 1 10 C0.897 9.093 0.794 8.185 0.688 7.25 C1 4 1 4 3 1.688 C6.827 -0.465 9.64 -0.704 14 -1 C14 1.31 14 3.62 14 6 C12.68 6.33 11.36 6.66 10 7 C10 7.99 10 8.98 10 10 C11.32 10 12.64 10 14 10 C14 12.31 14 14.62 14 17 C12.68 17 11.36 17 10 17 C10 24.92 10 32.84 10 41 C7.03 41 4.06 41 1 41 C0.835 37.205 0.835 37.205 0 18 C-0.99 18 -1.98 18 -3 18 C-3.33 25.59 -3.66 33.18 -4 41 C-7.3 41 -10.6 41 -14 41 C-14 33.08 -14 25.16 -14 17 C-14.99 17 -15.98 17 -17 17 C-17 14.69 -17 12.38 -17 10 C-16.01 10 -15.02 10 -14 10 C-13.917 9.093 -13.835 8.185 -13.75 7.25 C-12.892 3.533 -11.986 2.303 -9 0 C-5.769 -1.355 -3.346 -0.837 0 0 Z" fill="#FFFFFF" transform="translate(245,69)"/>
  <path d="M0 0 C3.364 2.84 5.408 5.697 7.812 9.375 C8.115 8.832 8.418 8.29 8.73 7.73 C13.123 0.229 13.123 0.229 17.812 -1.625 C23.852 -3.011 28.402 -2.851 33.812 0.375 C36.706 3.003 38.564 5.63 39.812 9.375 C39.812 12.015 39.812 14.655 39.812 17.375 C32.222 17.375 24.632 17.375 16.812 17.375 C18.462 19.025 20.113 20.675 21.812 22.375 C27.012 22.175 27.012 22.175 28.812 20.375 C30.499 20.303 32.188 20.291 33.875 20.312 C34.794 20.322 35.713 20.331 36.66 20.34 C37.37 20.351 38.081 20.363 38.812 20.375 C37.692 24.732 35.663 27.008 32.004 29.422 C27.105 31.553 21.796 31.224 16.727 29.781 C10.878 27.023 10.219 23.506 6.812 17.375 C-0.777 17.375 -8.368 17.375 -16.188 17.375 C-13.188 21.375 -13.188 21.375 -10.188 22.25 C-7.188 22.375 -7.188 22.375 -4.188 20.375 C-1.707 20.18 -1.707 20.18 1 20.25 C1.901 20.268 2.802 20.286 3.73 20.305 C4.418 20.328 5.105 20.351 5.812 20.375 C4.692 24.732 2.663 27.008 -0.996 29.422 C-5.901 31.555 -11.245 31.247 -16.309 29.746 C-20.59 27.693 -22.716 24.734 -24.531 20.523 C-25.964 15.832 -25.719 11.937 -24.125 7.25 C-21.392 3.195 -17.944 -0.679 -13.207 -2.305 C-8.32 -3.08 -4.311 -2.198 0 0 Z M-14.125 7.812 C-14.806 8.658 -15.486 9.504 -16.188 10.375 C-15.188 11.375 -15.188 11.375 -12.246 11.473 C-11.051 11.461 -9.856 11.449 -8.625 11.438 C-7.427 11.428 -6.23 11.419 -4.996 11.41 C-4.533 11.404 -4.533 11.404 -2.188 11.375 C-2.848 9.725 -3.507 8.075 -4.188 6.375 C-10.464 4.775 -10.464 4.775 -14.125 7.812 Z M17.812 7.375 C17.483 8.695 17.153 10.015 16.812 11.375 C21.433 11.375 26.053 11.375 30.812 11.375 C29.812 7.375 29.812 7.375 28 6.125 C24.12 4.795 21.133 5.085 17.812 7.375 Z" fill="#FFFFFF" transform="translate(283.2,80.6)"/>
</svg>
