<svg xmlns="http://www.w3.org/2000/svg" viewBox="0 0 140 128" width="100%" height="100%">
  <!-- Bottom dark part -->
  <path d="M0 0 C31.68 0 63.36 0 96 0 C96.165 1.155 96.165 1.155 97 7 C97.784 6.031 98.567 5.061 99.375 4.062 C100.913 2.16 101.793 1.104 104 0 C109.014 -0.378 112.005 -0.131 116 3 C119.193 6.02 119.94 7.525 120.5 11.938 C120.276 16.175 118.774 18.763 116 22 C112.51 24.742 108.246 24.411 104 24 C100.01 22.814 99.017 20.498 97 17 C96.921 17.453 96.921 17.453 96.52 19.746 C94.066 32.557 89.359 42.752 78.648 50.758 C72.793 54.457 66.598 56.945 60 59 C59.386 59.193 58.773 59.387 58.141 59.586 C45.514 62.028 31.426 59.928 20.688 52.812 C9.71 44.326 3.817 36.36 0 23 C0 15.41 0 7.82 0 0 Z" fill="#57392E" transform="translate(12,44)"/>
  <!-- Top light part -->
  <path d="M0 0 C31.68 0 63.36 0 96 0 C96 5.94 96 11.88 96 18 C64.32 18 32.64 18 0 18 C0 12.06 0 6.12 0 0 Z" fill="#F5CA98" transform="translate(12,26)"/>
  <!-- Handle -->
  <path d="M0 0 C4.092 1.808 6.698 4.163 9 8 C9.624 12.913 9.533 14.973 7.25 19.375 C4.592 22.476 3.193 23.792 -0.891 24.18 C-8.056 24.419 -8.056 24.419 -11 22 C-14.04 17.609 -15.931 14.47 -15 9 C-11.185 2.051 -8.105 -0.853 0 0 Z" fill="#87523B" transform="translate(123,44)"/>
</svg>
