<?xml version="1.0" standalone="no"?>
<!DOCTYPE svg PUBLIC "-//W3C//DTD SVG 20010904//EN"
 "http://www.w3.org/TR/2001/REC-SVG-20010904/DTD/svg10.dtd">
<svg version="1.0" xmlns="http://www.w3.org/2000/svg"
 width="700.000000pt" height="700.000000pt" viewBox="0 0 700.000000 700.000000"
 preserveAspectRatio="xMidYMid meet">
<metadata>
Created by potrace 1.14, written by Peter Selinger 2001-2017
</metadata>
<g transform="translate(0.000000,700.000000) scale(0.100000,-0.100000)"
fill="#000000" stroke="none">
<path d="M1685 6701 c-32 -8 -100 -42 -125 -63 -30 -25 -70 -85 -85 -129 -24
-65 -24 -703 -1 -767 46 -126 144 -195 276 -195 89 0 133 17 197 75 47 45 76
92 88 146 8 38 9 674 1 711 -33 153 -200 259 -351 222z"/>
<path d="M2822 6692 c-101 -36 -171 -118 -190 -222 -4 -25 -7 -193 -7 -375 2
-325 2 -331 25 -380 52 -108 147 -169 266 -169 120 0 216 62 268 173 20 44 21
61 21 411 0 360 0 366 -23 407 -73 138 -224 203 -360 155z"/>
<path d="M4008 6697 c-94 -27 -162 -90 -199 -186 -17 -47 -19 -76 -16 -398 2
-332 3 -350 23 -394 62 -135 202 -202 344 -165 90 23 174 102 202 189 12 38
17 636 6 718 -4 30 -13 67 -21 82 -65 124 -209 190 -339 154z"/>
<path d="M1099 4956 c-2 -2 -22 -7 -44 -10 -136 -21 -286 -120 -371 -246 -38
-55 -79 -158 -91 -226 -11 -59 -10 -2557 1 -2624 48 -294 158 -540 333 -747
244 -287 572 -463 953 -511 30 -3 507 -6 1060 -6 913 0 1013 2 1095 17 50 10
104 22 122 28 17 6 43 12 57 15 46 8 220 84 301 131 423 245 699 684 731 1164
3 52 7 95 8 96 1 1 38 5 81 8 217 16 366 55 560 150 387 188 675 550 774 975
29 123 36 197 35 360 -5 540 -319 1035 -808 1275 -127 62 -219 94 -361 126
l-100 23 -2166 2 c-1192 2 -2168 2 -2170 0z m3566 -1801 c-1 -1145 -2 -1225
-19 -1300 -58 -253 -217 -461 -450 -589 -60 -34 -171 -71 -256 -87 -91 -16
-1960 -17 -2040 0 -30 6 -64 13 -75 15 -134 27 -332 147 -434 263 -117 134
-197 308 -217 473 -5 41 -10 2283 -5 2420 l1 25 1748 0 1747 0 0 -1220z m770
1199 c81 -20 75 -18 120 -34 60 -20 163 -77 225 -125 248 -192 370 -481 337
-800 -29 -282 -215 -546 -474 -675 -124 -61 -291 -101 -380 -91 -10 1 -13 182
-13 869 0 478 2 871 5 874 8 8 117 -3 180 -18z"/>
</g>
</svg>
