<svg width="162" height="34" xmlns="http://www.w3.org/2000/svg" xmlns:xlink="http://www.w3.org/1999/xlink" overflow="hidden"><defs><clipPath id="clip0"><rect x="98" y="118" width="162" height="34"/></clipPath><clipPath id="clip1"><rect x="99" y="119" width="160" height="33"/></clipPath><clipPath id="clip2"><rect x="99" y="119" width="160" height="33"/></clipPath><clipPath id="clip3"><rect x="99" y="119" width="160" height="33"/></clipPath></defs><g clip-path="url(#clip0)" transform="translate(-98 -118)"><g clip-path="url(#clip1)"><g clip-path="url(#clip2)"><g clip-path="url(#clip3)"><path d="M68.5173 19.1963 77.8796 19.1963 72.933 11.2136 63.8529 25.6314 59.705 25.6314 70.7601 8.32831C71.2321 7.62729 72.0421 7.20271 72.9276 7.20271 73.7935 7.20271 74.5893 7.61328 75.0614 8.29756L86.1499 25.6314 82.0135 25.6314 80.064 22.4082 70.584 22.4082 68.5173 19.1963M111.475 22.4082 111.475 7.37875 107.958 7.37875 107.958 23.8859C107.958 24.3356 108.148 24.7769 108.478 25.0951 108.813 25.4416 109.274 25.6314 109.757 25.6314L125.748 25.6314 127.831 22.4082 111.475 22.4082M53.4144 19.7214C56.8316 19.7214 59.5794 16.9561 59.5794 13.5486 59.5794 10.1411 56.8316 7.37875 53.4144 7.37875L38.058 7.37875 38.058 25.6314 41.5674 25.6314 41.5674 10.6047 53.181 10.6047C54.811 10.6047 56.132 11.9203 56.132 13.5486 56.132 15.1742 54.811 16.512 53.181 16.512L43.2839 16.5037 53.7664 25.6314 58.8587 25.6314 51.8182 19.7214 53.4144 19.7214M16.466 25.6314 27.0755 25.6314C32.1227 25.6314 36.1867 21.5536 36.1867 16.512 36.1867 11.465 32.1227 7.37875 27.0755 7.37875L16.466 7.37875C11.4245 7.37875 7.33542 11.465 7.33542 16.512 7.33542 21.5536 11.4245 25.6314 16.466 25.6314M26.8326 22.4193 16.6994 22.4193C13.4383 22.4193 10.796 19.7687 10.796 16.512 10.796 13.2414 13.4383 10.6047 16.6994 10.6047L26.8326 10.6047C30.1046 10.6047 32.7442 13.2414 32.7442 16.512 32.7442 19.7687 30.1046 22.4193 26.8326 22.4193M93.479 25.6314 104.311 25.6314 106.361 22.4193 93.7192 22.4193C90.443 22.4193 87.8035 19.7687 87.8035 16.512 87.8035 13.2414 90.443 10.6047 93.7192 10.6047L104.009 10.6047 106.084 7.37875 93.479 7.37875C88.4347 7.37875 84.3372 11.465 84.3372 16.512 84.3373 21.5536 88.4349 25.6314 93.479 25.6314M136.4 22.4193C133.697 22.4193 131.417 20.604 130.714 18.1209L145.713 18.1209 147.779 14.9032 130.714 14.9032C131.415 12.4147 133.697 10.6047 136.4 10.6047L146.698 10.6047 148.758 7.37875 136.166 7.37875C131.13 7.37875 127.043 11.465 127.043 16.512 127.043 21.5536 131.13 25.6314 136.166 25.6314L146.997 25.6314 149.057 22.4193 136.4 22.4193" fill="#C74634" fill-rule="nonzero" fill-opacity="1" transform="matrix(1.02307 0 0 1 99 119.083)"/></g></g></g></g></svg>