<svg xmlns="http://www.w3.org/2000/svg" viewBox="0 0 582.75 104.00" preserveAspectRatio="xMidYMid meet" role="img" aria-label="Cymbal Coffee">
  <title>Cymbal Coffee</title>
  <g fill="#ffffff" transform="translate(10.071 74.390) scale(0.083857 -0.083857)">
    <path transform="translate(0.00 0)" d="M411 -12Q329 -12 258.5 15.5Q188 43 135.0 93.0Q82 143 52.5 210.5Q23 278 23 357Q23 437 52.5 504.0Q82 571 134.5 620.0Q187 669 257.0 696.5Q327 724 409 724Q492 724 561.0 698.0Q630 672 681 626L548 492Q524 518 489.5 533.0Q455 548 409 548Q369 548 335.5 535.0Q302 522 278.0 497.0Q254 472 240.5 436.5Q227 401 227 357Q227 312 240.5 276.5Q254 241 278.0 216.0Q302 191 335.5 177.5Q369 164 409 164Q454 164 489.5 178.0Q525 192 551 219L685 85Q632 39 566.0 13.5Q500 -12 411 -12Z"/>
    <path transform="translate(646.35 0)" d="M191 0 -3 492H205L319 73H233L345 492H552L359 0ZM84 -210 227 113 359 0 276 -210Z"/>
    <path transform="translate(1156.92 0)" d="M47 0V492H243V0ZM350 0V282Q350 307 335.0 321.5Q320 336 297 336Q281 336 268.5 329.5Q256 323 249.5 311.0Q243 299 243 282L167 310Q167 370 193.5 413.0Q220 456 265.0 479.0Q310 502 367 502Q417 502 457.5 478.0Q498 454 522.0 411.5Q546 369 546 311V0ZM653 0V282Q653 307 638.0 321.5Q623 336 600 336Q584 336 571.5 329.5Q559 323 552.5 311.0Q546 299 546 282L431 281Q431 350 458.5 399.5Q486 449 535.0 475.5Q584 502 647 502Q706 502 751.5 477.0Q797 452 823.0 405.0Q849 358 849 292V0Z"/>
    <path transform="translate(1979.97 0)" d="M350 -10Q306 -10 267.0 7.0Q228 24 201.0 52.5Q174 81 166 115V387Q174 421 201.0 447.0Q228 473 267.0 487.5Q306 502 350 502Q423 502 477.5 469.5Q532 437 562.5 379.0Q593 321 593 246Q593 171 562.5 113.5Q532 56 477.5 23.0Q423 -10 350 -10ZM47 0V732H243V371L211 252L238 132V0ZM314 162Q338 162 356.5 173.0Q375 184 385.5 203.0Q396 222 396 246Q396 270 385.5 289.0Q375 308 356.0 319.0Q337 330 313 330Q289 330 270.5 319.0Q252 308 242.0 289.5Q232 271 232 246Q232 221 242.5 202.0Q253 183 271.5 172.5Q290 162 314 162Z"/>
    <path transform="translate(2547.27 0)" d="M252 -10Q183 -10 130.0 23.0Q77 56 47.0 113.5Q17 171 17 246Q17 321 47.0 379.0Q77 437 130.0 469.5Q183 502 252 502Q295 502 331.5 487.5Q368 473 392.5 447.0Q417 421 424 387V105Q417 71 392.5 45.0Q368 19 331.5 4.5Q295 -10 252 -10ZM296 162Q333 162 355.5 185.5Q378 209 378 246Q378 271 368.0 289.5Q358 308 339.5 319.0Q321 330 297 330Q273 330 254.5 319.0Q236 308 225.0 289.0Q214 270 214 246Q214 222 224.5 203.0Q235 184 254.0 173.0Q273 162 296 162ZM372 0V132L399 252L372 371V492H563V0Z"/>
    <path transform="translate(3114.57 0)" d="M47 0V732H243V0Z"/>
    <path transform="translate(3551.67 0)" d="M411 -12Q329 -12 258.5 15.5Q188 43 135.0 93.0Q82 143 52.5 210.5Q23 278 23 357Q23 437 52.5 504.0Q82 571 134.5 620.0Q187 669 257.0 696.5Q327 724 409 724Q492 724 561.0 698.0Q630 672 681 626L548 492Q524 518 489.5 533.0Q455 548 409 548Q369 548 335.5 535.0Q302 522 278.0 497.0Q254 472 240.5 436.5Q227 401 227 357Q227 312 240.5 276.5Q254 241 278.0 216.0Q302 191 335.5 177.5Q369 164 409 164Q454 164 489.5 178.0Q525 192 551 219L685 85Q632 39 566.0 13.5Q500 -12 411 -12Z"/>
    <path transform="translate(4198.02 0)" d="M295 -12Q214 -12 150.5 21.5Q87 55 50.5 114.0Q14 173 14 247Q14 321 50.0 379.0Q86 437 149.5 470.5Q213 504 294 504Q375 504 438.0 470.5Q501 437 537.5 379.0Q574 321 574 247Q574 173 538.0 114.0Q502 55 439.0 21.5Q376 -12 295 -12ZM294 160Q319 160 337.5 170.5Q356 181 366.0 200.5Q376 220 376 246Q376 272 365.5 291.5Q355 311 337.0 321.5Q319 332 294 332Q270 332 251.5 321.0Q233 310 222.5 290.5Q212 271 212 245Q212 220 222.5 200.5Q233 181 251.5 170.5Q270 160 294 160Z"/>
    <path transform="translate(4744.86 0)" d="M105 0V512Q105 576 133.0 628.5Q161 681 214.0 712.5Q267 744 342 744Q398 744 441.5 726.0Q485 708 514 678L393 557Q386 565 375.0 568.5Q364 572 352 572Q329 572 315.0 558.0Q301 544 301 521V0ZM5 332V492H436V332Z"/>
    <path transform="translate(5180.10 0)" d="M105 0V512Q105 576 133.0 628.5Q161 681 214.0 712.5Q267 744 342 744Q398 744 441.5 726.0Q485 708 514 678L393 557Q386 565 375.0 568.5Q364 572 352 572Q329 572 315.0 558.0Q301 544 301 521V0ZM5 332V492H436V332Z"/>
    <path transform="translate(5615.34 0)" d="M303 -12Q217 -12 152.0 20.5Q87 53 50.5 111.5Q14 170 14 246Q14 321 49.5 379.0Q85 437 147.0 470.5Q209 504 287 504Q364 504 423.0 472.5Q482 441 515.5 385.0Q549 329 549 257Q549 242 547.5 225.5Q546 209 541 187L97 184V304L468 307L377 254Q377 294 367.5 319.5Q358 345 339.0 358.0Q320 371 291 371Q261 371 239.0 356.0Q217 341 205.5 313.0Q194 285 194 245Q194 204 206.5 176.5Q219 149 243.0 135.0Q267 121 303 121Q338 121 364.5 132.5Q391 144 413 169L511 72Q474 30 422.0 9.0Q370 -12 303 -12Z"/>
    <path transform="translate(6137.07 0)" d="M303 -12Q217 -12 152.0 20.5Q87 53 50.5 111.5Q14 170 14 246Q14 321 49.5 379.0Q85 437 147.0 470.5Q209 504 287 504Q364 504 423.0 472.5Q482 441 515.5 385.0Q549 329 549 257Q549 242 547.5 225.5Q546 209 541 187L97 184V304L468 307L377 254Q377 294 367.5 319.5Q358 345 339.0 358.0Q320 371 291 371Q261 371 239.0 356.0Q217 341 205.5 313.0Q194 285 194 245Q194 204 206.5 176.5Q219 149 243.0 135.0Q267 121 303 121Q338 121 364.5 132.5Q391 144 413 169L511 72Q474 30 422.0 9.0Q370 -12 303 -12Z"/>
  </g>
</svg>
